<svg id="visual" viewBox="0 0 900 600" width="900" height="600" xmlns="http://www.w3.org/2000/svg" xmlns:xlink="http://www.w3.org/1999/xlink" version="1.1"><path d="M0 122L25 117.2C50 112.3 100 102.7 150 100.7C200 98.7 250 104.3 300 112.3C350 120.3 400 130.7 450 131.2C500 131.7 550 122.3 600 106.7C650 91 700 69 750 66C800 63 850 79 875 87L900 95L900 0L875 0C850 0 800 0 750 0C700 0 650 0 600 0C550 0 500 0 450 0C400 0 350 0 300 0C250 0 200 0 150 0C100 0 50 0 25 0L0 0Z" fill="#a9e7e2" stroke-linecap="round" stroke-linejoin="miter"></path></svg>